<svg xmlns="http://www.w3.org/2000/svg" viewBox="0 0 36.37 33.03"><defs><style>.cls-1,.cls-2,.cls-3{fill:none;stroke-miterlimit:10;stroke-width:1.03px;}.cls-1,.cls-2{stroke:#231f20;}.cls-2{stroke-linecap:round;}.cls-3{stroke:#c44c27;}</style></defs><title>3dDesign</title><g id="Layer_2" data-name="Layer 2"><g id="Layer_1-2" data-name="Layer 1"><rect class="cls-1" x="0.51" y="0.51" width="35.34" height="26.97" rx="1.28" ry="1.28"/><polyline class="cls-1" points="15.83 27.55 14.26 32.45 22.77 32.45 20.93 27.41"/><line class="cls-2" x1="11.86" y1="32.51" x2="25.34" y2="32.51"/><line class="cls-2" x1="0.67" y1="22.57" x2="35.79" y2="22.57"/><circle class="cls-2" cx="18.15" cy="25.09" r="0.69"/><polygon class="cls-3" points="24.99 19.23 16.35 19.23 16.35 10.59 21.52 10.59 24.99 10.59 24.99 19.23"/><line class="cls-3" x1="12.88" y1="7.32" x2="16.48" y2="10.92"/><path class="cls-3" d="M25.3,10.5"/><path class="cls-3" d="M21.7,6.9"/><line class="cls-3" x1="12.88" y1="15.63" x2="16.48" y2="19.23"/><polygon class="cls-3" points="24.99 10.07 24.99 19.36 16.22 19.36 12.95 15.96 12.95 7.19 21.98 7.19 24.99 10.07"/><line class="cls-3" x1="21.13" y1="10.59" x2="31.14" y2="10.59"/><line class="cls-3" x1="24.99" y1="14.32" x2="24.99" y2="3.85"/><polyline class="cls-3" points="29.25 8.56 31.37 10.69 29.31 12.75"/><polyline class="cls-3" points="22.91 5.05 25.04 2.92 27.1 4.98"/><line class="cls-1" x1="3.85" y1="6.08" x2="8.83" y2="6.08"/><line class="cls-1" x1="3.79" y1="8.56" x2="8.76" y2="8.56"/><line class="cls-1" x1="3.79" y1="11.12" x2="8.76" y2="11.12"/><line class="cls-1" x1="3.72" y1="13.6" x2="8.7" y2="13.6"/></g></g></svg>