<svg xmlns="http://www.w3.org/2000/svg" width="32" height="32" viewBox="0 0 32 32"><title>appliance</title><path fill="#000" d="M11.028 28.357h-2.117v-1.034h4.185c0.295 0 0.542-0.246 0.542-0.542v-7.335c0-0.295-0.246-0.542-0.542-0.542h-12.554c-0.295 0-0.542 0.246-0.542 0.542v7.335c0 0.295 0.246 0.542 0.542 0.542h4.185v1.034h-2.117c-0.295 0-0.542 0.246-0.542 0.542v2.117c0 0.295 0.246 0.542 0.542 0.542h8.418c0.295 0 0.542-0.246 0.542-0.542v-2.117c0-0.295-0.246-0.542-0.542-0.542zM1.034 26.24v-6.302h11.569v6.302h-11.569zM7.877 27.323v1.034h-2.117v-1.034h2.117zM10.486 30.474h-7.335v-1.034h7.335v1.034z"></path><path fill="#000" d="M15.754 30.474h-3.151v1.034h3.151v-1.034z"></path><path fill="#000" d="M20.48 11.028h-1.034v1.575h1.034v-1.575z"></path><path fill="#000" d="M5.76 9.452h12.603v-1.034h-12.603v-7.385h13.637v0.542h1.034v-1.034c0-0.295-0.246-0.542-0.542-0.542h-14.622c-0.295 0-0.542 0.246-0.542 0.542v17.329h1.034v-8.418z"></path><path fill="#000" d="M7.877 3.151h-1.034v3.151h1.034v-3.151z"></path><path fill="#000" d="M7.877 11.028h-1.034v3.692h1.034v-3.692z"></path><path fill="#000" d="M29.932 13.637h-12.603c-0.295 0-0.542 0.246-0.542 0.542v16.788c0 0.295 0.246 0.542 0.542 0.542h12.603c0.295 0 0.542-0.246 0.542-0.542v-16.788c0-0.295-0.246-0.542-0.542-0.542zM17.871 14.72h1.575v1.575h-1.575v-1.575zM29.391 30.474h-1.575v-1.575h1.575v1.575zM27.274 27.815c-0.295 0-0.542 0.246-0.542 0.542v2.117h-8.862v-13.145h2.117c0.295 0 0.542-0.246 0.542-0.542v-2.117h6.302v2.117c0 0.295 0.246 0.542 0.542 0.542h2.117v10.486h-2.215zM29.391 16.295h-1.575v-1.575h1.575v1.575z"></path><path fill="#000" d="M19.938 18.855c-1.526 1.526-1.969 3.742-1.132 5.711s2.708 3.249 4.874 3.249c2.905 0 5.268-2.363 5.268-5.268 0-2.117-1.28-4.037-3.249-4.874-2.018-0.738-4.283-0.295-5.76 1.182zM27.52 24.172c-0.64 1.575-2.166 2.609-3.889 2.609-2.314 0-4.185-1.871-4.185-4.185 0-1.723 1.034-3.249 2.609-3.889s3.397-0.295 4.578 0.935c1.182 1.182 1.526 2.954 0.886 4.529z"></path><path fill="#000" d="M21.022 19.988c-1.034 1.034-1.378 2.609-0.788 3.988s1.92 2.265 3.397 2.265c2.018 0 3.692-1.625 3.692-3.692 0-1.477-0.886-2.806-2.265-3.397-1.378-0.542-2.954-0.197-4.037 0.837zM21.514 24.172c-0.345-0.443-0.542-0.985-0.542-1.575s0.197-1.132 0.542-1.575c0.738 0.935 0.738 2.215 0 3.151zM24.96 20.283c0.837 0.492 1.329 1.329 1.329 2.265s-0.492 1.822-1.329 2.265c-0.837 0.492-1.822 0.492-2.609 0 1.034-1.329 1.034-3.2 0-4.529 0.788-0.443 1.772-0.443 2.609 0z"></path><path fill="#c54a15" d="M29.686 1.822c-1.822-1.772-4.529-2.314-6.892-1.329s-3.889 3.249-3.889 5.809c0 3.495 2.806 6.302 6.302 6.302 2.56 0 4.825-1.526 5.809-3.889s0.443-5.071-1.329-6.892zM28.898 9.994c-1.526 1.526-3.742 1.969-5.711 1.132s-3.249-2.708-3.249-4.874c0-2.905 2.363-5.268 5.268-5.268 2.117 0 4.037 1.28 4.874 3.249 0.788 2.018 0.345 4.283-1.182 5.76z"></path><path fill="#c54a15" d="M23.631 7.68l-1.182-1.182-0.788 0.689 1.575 1.575c0.098 0.098 0.246 0.148 0.394 0.148s0.295-0.049 0.394-0.148l4.726-4.726-0.738-0.738-4.382 4.382z"></path></svg>