<svg xmlns="http://www.w3.org/2000/svg" viewBox="0 0 29.96 32.51"><defs><style>.cls-1,.cls-2{fill:none;stroke-miterlimit:10;stroke-width:1.03px;}.cls-1{stroke:#231f20;}.cls-2{stroke:#c44c27;}</style></defs><title>Bathrooms</title><g id="Layer_2" data-name="Layer 2"><g id="Layer_1-2" data-name="Layer 1"><rect class="cls-1" x="0.51" y="1.34" width="14.63" height="30.66"/><line class="cls-1" x1="0.37" y1="27.22" x2="14.86" y2="27.22"/><polyline class="cls-1" points="0.8 5.42 8.11 5.42 8.11 7.07"/><path class="cls-1" d="M10.91,10.24a2.85,2.85,0,0,0-2.73-3,2.85,2.85,0,0,0-2.73,3Z"/><ellipse class="cls-1" cx="23.35" cy="5.61" rx="3.44" ry="4.29"/><line class="cls-1" x1="23.3" x2="23.3" y2="1.32"/><rect class="cls-2" x="17.92" y="12.55" width="11.13" height="6.59" rx="1.46" ry="1.46"/><line class="cls-2" x1="18.03" y1="14.56" x2="29.16" y2="14.56"/><circle class="cls-2" cx="23.57" cy="16.83" r="0.95"/><path class="cls-2" d="M18.68,21.52a.64.64,0,0,0-.64.7,5.93,5.93,0,0,0,5.7,5.53,5.93,5.93,0,0,0,5.7-5.53.64.64,0,0,0-.64-.7Z"/><line class="cls-2" x1="18.61" y1="23.68" x2="29.05" y2="23.68"/><rect class="cls-2" x="19.61" y="19.25" width="7.86" height="2.27"/><polyline class="cls-2" points="21.72 27.9 20.45 31.86 27.31 31.86 25.83 27.8"/></g></g></svg>