<svg xmlns="http://www.w3.org/2000/svg" width="32" height="32" viewBox="0 0 32 32"><title>carpentry</title><path fill="#c54a15" d="M29.932 8.369h-20.48v-0.542c0-0.295-0.246-0.542-0.542-0.542h-2.609c0.049-0.738 0.246-1.477 0.591-2.166l1.969-3.938c0.148-0.246 0.049-0.591-0.246-0.689-0.197-0.098-0.394-0.049-0.542 0.049l-3.102 2.166c-1.772 1.329-2.855 3.446-2.855 5.662v4.726c0 0.295 0.246 0.542 0.542 0.542h1.034v0.295l-0.886 0.886c-0.098 0.098-0.148 0.246-0.148 0.394v1.575c0 0.295 0.246 0.542 0.542 0.542h5.268c0.295 0 0.542-0.246 0.542-0.542v-1.575c0-0.148-0.049-0.295-0.148-0.394l-0.985-0.886v-0.295h1.034c0.295 0 0.542-0.246 0.542-0.542v-0.542h20.48c0.886 0 1.575-0.689 1.575-1.575v-1.034c0-0.886-0.689-1.575-1.575-1.575zM8.418 12.554h-1.034c-0.295 0-0.542 0.246-0.542 0.542v1.034c0 0.148 0.049 0.295 0.148 0.394l0.886 0.886v0.837h-4.185v-0.837l0.886-0.886c0.098-0.098 0.148-0.246 0.148-0.394v-1.034c0-0.295-0.246-0.542-0.542-0.542h-1.034v-4.185c0-1.871 0.935-3.643 2.462-4.726l1.378-0.985-1.034 2.068c-0.492 0.935-0.738 1.969-0.738 3.052v0.098c0 0.295 0.246 0.542 0.542 0.542h2.609v4.135h0.049zM30.474 10.978c0 0.295-0.246 0.542-0.542 0.542h-20.48v-2.117h20.48c0.295 0 0.542 0.246 0.542 0.542v1.034z"></path><path fill="#000" d="M30.966 24.665h-23.631v-4.037l0.985-1.428c0.148-0.246 0.098-0.591-0.148-0.738-0.098-0.049-0.197-0.098-0.295-0.098h-4.185c-0.295 0-0.542 0.246-0.542 0.542 0 0.098 0.049 0.197 0.098 0.295l0.985 1.428v4.037h-3.692c-0.295 0-0.542 0.246-0.542 0.542v6.302c0 0.246 0.246 0.492 0.542 0.492h30.474c0.295 0 0.542-0.246 0.542-0.541v-6.302c-0.049-0.295-0.295-0.492-0.591-0.492zM6.892 19.397l-0.492 0.738c-0.049 0.098-0.098 0.197-0.098 0.295v4.234h-1.034v-4.234c0-0.098-0.049-0.197-0.098-0.295l-0.492-0.738h2.215zM30.474 26.732h-1.034c-0.295 0-0.542 0.246-0.542 0.542s0.246 0.541 0.542 0.541h1.034v1.034h-1.575c-0.295 0-0.542 0.246-0.542 0.542s0.246 0.541 0.542 0.541h1.575v1.034h-29.44v-1.034h1.034c0.295 0 0.542-0.246 0.542-0.541s-0.246-0.542-0.542-0.542h-1.034v-1.034h7.335c0.295 0 0.542-0.246 0.542-0.541s-0.246-0.542-0.542-0.542h-7.335v-1.034h29.391v1.034h0.049z"></path><path fill="#000" d="M10.486 27.815h2.117c0.295 0 0.542-0.246 0.542-0.541s-0.246-0.542-0.542-0.542h-2.117c-0.295 0-0.542 0.246-0.542 0.542s0.246 0.541 0.542 0.541z"></path><path fill="#000" d="M14.72 27.815h3.151c0.295 0 0.542-0.246 0.542-0.541s-0.246-0.542-0.542-0.542h-3.151c-0.295 0-0.542 0.246-0.542 0.542s0.246 0.541 0.542 0.541z"></path><path fill="#000" d="M19.938 27.815h7.335c0.295 0 0.542-0.246 0.542-0.541s-0.246-0.542-0.542-0.542h-7.335c-0.295 0-0.542 0.246-0.542 0.542s0.246 0.541 0.542 0.541z"></path><path fill="#000" d="M7.335 28.849h-3.151c-0.295 0-0.542 0.246-0.542 0.542s0.246 0.541 0.542 0.541h3.151c0.295 0 0.542-0.246 0.542-0.541s-0.246-0.542-0.542-0.542z"></path><path fill="#000" d="M9.452 29.883h8.418c0.295 0 0.542-0.246 0.542-0.542s-0.246-0.542-0.542-0.542h-8.418c-0.295 0-0.542 0.246-0.542 0.542s0.246 0.542 0.542 0.542z"></path><path fill="#000" d="M22.597 28.849h-2.117c-0.295 0-0.542 0.246-0.542 0.542s0.246 0.541 0.542 0.541h2.117c0.295 0 0.542-0.246 0.542-0.541s-0.246-0.542-0.542-0.542z"></path><path fill="#000" d="M26.782 28.849h-2.117c-0.295 0-0.542 0.246-0.542 0.542s0.246 0.541 0.542 0.541h2.117c0.295 0 0.542-0.246 0.542-0.541s-0.246-0.542-0.542-0.542z"></path></svg>