<svg xmlns="http://www.w3.org/2000/svg" width="26" height="32" viewBox="0 0 26 32"><title>electrical</title><path fill="#c54a15" d="M13.637 21.022c0.295 0 0.542-0.246 0.542-0.542v-5.76h1.034c1.182 0 2.117-0.935 2.117-2.117s-0.935-2.117-2.117-2.117-2.117 0.935-2.117 2.117v1.034h-1.034v-1.034c0-1.182-0.935-2.117-2.117-2.117s-2.068 0.935-2.068 2.117c0 1.182 0.935 2.117 2.117 2.117h1.034v5.76c0 0.295 0.246 0.542 0.542 0.542s0.542-0.246 0.542-0.542v-5.76h1.034v5.76c0 0.295 0.197 0.542 0.492 0.542zM15.212 11.569c0.591 0 1.034 0.492 1.034 1.034s-0.492 1.034-1.034 1.034h-1.034v-1.034c0-0.591 0.492-1.034 1.034-1.034zM8.911 12.603c0-0.591 0.492-1.034 1.034-1.034 0.591 0 1.034 0.492 1.034 1.034v1.034h-1.034c-0.542 0-1.034-0.443-1.034-1.034z"></path><path fill="#000" d="M12.603 3.151c0.295 0 0.542-0.246 0.542-0.542v-2.068c0-0.295-0.246-0.542-0.542-0.542s-0.542 0.246-0.542 0.542v2.117c0 0.246 0.246 0.492 0.542 0.492z"></path><path fill="#000" d="M6.105 2.412l1.034 1.822c0.148 0.246 0.492 0.345 0.738 0.197s0.345-0.443 0.197-0.738l-1.034-1.822c-0.148-0.246-0.443-0.345-0.738-0.197-0.246 0.148-0.345 0.492-0.197 0.738z"></path><path fill="#000" d="M1.871 7.040l1.822 1.034c0.246 0.148 0.591 0.049 0.738-0.197s0.049-0.591-0.197-0.738l-1.822-1.034c-0.246-0.148-0.591-0.049-0.738 0.197s-0.049 0.591 0.197 0.738z"></path><path fill="#000" d="M3.151 12.603c0-0.295-0.246-0.542-0.542-0.542h-2.068c-0.295 0-0.542 0.246-0.542 0.542s0.246 0.542 0.542 0.542h2.117c0.246 0 0.492-0.246 0.492-0.542z"></path><path fill="#000" d="M3.692 17.132l-1.822 1.034c-0.246 0.148-0.345 0.443-0.197 0.738 0.148 0.246 0.443 0.345 0.738 0.197l1.822-1.034c0.246-0.148 0.345-0.443 0.197-0.738-0.148-0.246-0.492-0.345-0.738-0.197z"></path><path fill="#000" d="M23.335 18.166l-1.822-1.034c-0.246-0.148-0.591-0.049-0.738 0.197s-0.049 0.591 0.197 0.738l1.822 1.034c0.246 0.148 0.591 0.049 0.738-0.197s0.049-0.591-0.197-0.738z"></path><path fill="#000" d="M24.665 12.062h-2.117c-0.295 0-0.542 0.246-0.542 0.542s0.246 0.542 0.542 0.542h2.117c0.295 0 0.542-0.246 0.542-0.542s-0.246-0.542-0.542-0.542z"></path><path fill="#000" d="M21.268 8.123c0.098 0 0.197 0 0.246-0.049l1.822-1.034c0.246-0.148 0.345-0.443 0.197-0.738-0.148-0.246-0.443-0.345-0.738-0.197l-1.822 1.034c-0.246 0.148-0.345 0.443-0.197 0.738 0.098 0.148 0.295 0.246 0.492 0.246z"></path><path fill="#000" d="M17.329 4.431c0.246 0.148 0.591 0.049 0.738-0.197l1.034-1.822c0.148-0.246 0.049-0.591-0.197-0.738s-0.591-0.049-0.738 0.197l-1.034 1.822c-0.148 0.246-0.049 0.591 0.197 0.738z"></path><path fill="#000" d="M12.997 4.234c-4.628-0.246-8.566 3.348-8.763 7.975-0.148 2.658 0.985 5.218 3.052 6.892 0.394 0.295 0.591 0.738 0.591 1.182v1.231c0 0.689 0.443 1.28 1.034 1.477v0.64c0 0.394 0.148 0.788 0.394 1.034-0.542 0.591-0.542 1.526 0 2.117-0.591 0.64-0.542 1.625 0.098 2.215 0.295 0.246 0.689 0.394 1.083 0.394 0.295 0 0.542-0.197 0.542-0.492 0-0.098-0.049-0.197-0.098-0.295 0-0.049-0.049-0.049-0.049-0.098-0.049-0.049-0.098-0.049-0.148-0.098h-0.049c-0.049 0-0.098-0.049-0.148-0.049-0.295 0-0.542-0.246-0.542-0.542s0.246-0.542 0.542-0.542h2.117c0.295 0 0.542-0.246 0.542-0.542s-0.246-0.542-0.542-0.542h-2.117c-0.295 0-0.542-0.246-0.542-0.542s0.246-0.542 0.542-0.542h2.117c0.295 0 0.542-0.246 0.542-0.542s-0.246-0.542-0.542-0.542h-2.117c-0.295 0-0.542-0.246-0.542-0.542v-0.542h2.609c0.295 0 0.542-0.246 0.542-0.542s-0.246-0.542-0.542-0.542h-3.151c-0.295 0-0.542-0.246-0.542-0.542v-1.231c0-0.788-0.394-1.526-0.985-2.018-3.151-2.56-3.594-7.188-1.034-10.338 1.477-1.772 3.692-2.806 6.006-2.658 3.889 0.246 6.942 3.397 6.991 7.286 0 2.215-0.985 4.332-2.708 5.76-0.591 0.492-0.935 1.231-0.935 2.068v1.182c0 0.295-0.246 0.542-0.542 0.542h-1.575c-0.295 0-0.542 0.246-0.542 0.542s0.246 0.542 0.542 0.542h1.034v0.64c0 0.295-0.246 0.542-0.542 0.542h-0.542c-0.295 0-0.542 0.246-0.542 0.542s0.246 0.542 0.542 0.542h0.542c0.295 0 0.542 0.246 0.542 0.542s-0.246 0.542-0.542 0.542h-0.542c-0.295 0-0.542 0.246-0.542 0.542s0.246 0.542 0.542 0.542h0.542c0.295 0 0.542 0.246 0.542 0.542s-0.246 0.542-0.542 0.542h-2.609c-0.295 0-0.542 0.246-0.542 0.542s0.246 0.542 0.542 0.542h2.018c-0.295 0.837-1.182 1.231-2.018 0.985-0.246-0.098-0.492-0.246-0.64-0.443-0.197-0.197-0.542-0.246-0.738-0.049s-0.246 0.542-0.049 0.738c0.985 1.083 2.609 1.182 3.692 0.197 0.443-0.394 0.738-0.935 0.837-1.526 0.837-0.246 1.28-1.132 1.034-1.969-0.049-0.197-0.197-0.443-0.345-0.591 0.542-0.591 0.542-1.526 0-2.117 0.246-0.295 0.394-0.64 0.394-1.034v-0.64c0.64-0.246 1.034-0.837 1.034-1.477v-1.182c0-0.492 0.197-0.935 0.542-1.231 1.969-1.625 3.151-4.037 3.102-6.597 0.049-4.529-3.446-8.172-7.877-8.418z"></path></svg>