<svg xmlns="http://www.w3.org/2000/svg" width="32" height="32" viewBox="0 0 32 32"><title>flooring</title><path fill="#000" d="M29.35 26.1h-4.050v-4.5c0-0.25-0.2-0.45-0.45-0.45h-7v-7.25c0-0.25-0.2-0.45-0.45-0.45s-0.45 0.2-0.45 0.45v7.2h-4.050v-11.5h4.050v2.4c0 0.25 0.2 0.45 0.45 0.45s0.45-0.2 0.45-0.45v-2.9c0-0.25-0.2-0.45-0.45-0.45h-14.95c-0.25 0-0.45 0.2-0.45 0.45 0 0.45 0 13.75 0 15.75 0 0.25 0.2 0.45 0.45 0.45s0.45-0.2 0.45-0.45v-5.3h4.1v11.5h-4.050v-4.3c0-0.25-0.2-0.45-0.45-0.45-0.3 0-0.5 0.2-0.5 0.45v4.75c0 0.3 0.2 0.5 0.5 0.5h26.9c0.25 0 0.45-0.2 0.45-0.45v-4.95c0-0.3-0.25-0.5-0.5-0.5zM24.35 22.050v4.050h-11.5v-4.050h11.5zM7.9 26.1v-11.5h4.050v11.5h-4.050zM2.95 9.65h9v4.050h-9v-4.050zM2.95 18.65v-4.050h4.050v4.050h-4.050zM7.9 27.050h11.5v4.050h-11.5v-4.050zM28.9 31.050h-8.55v-4.050h8.55v4.050z"></path><path fill="#c54a15" d="M29.35 0h-12.4c-0.25 0-0.45 0.2-0.45 0.45v4.95c0 0.25 0.2 0.45 0.45 0.45h7v11.95c0 0.25 0.2 0.45 0.45 0.45h4.95c0.25 0 0.45-0.2 0.45-0.45v-17.35c0.050-0.25-0.2-0.45-0.45-0.45zM17.4 0.95h11.5v4.050h-11.5v-4.050zM28.9 17.4h-4.050v-11.5h4.050v11.5z"></path></svg>