<svg xmlns="http://www.w3.org/2000/svg" width="32" height="32" viewBox="0 0 32 32"><title>furniture</title><path fill="#c54a15" d="M24.8 17.050h-19.45v1.050h19.45c0.45 0 0.8 0.35 0.8 0.8v2.4h-0.15c-1.4 0-2.55 1.15-2.55 2.55v0.15h-1.8c0.1-0.25 0.2-0.5 0.2-0.8v-1.6c0-1.050-0.85-1.85-1.85-1.85h-1.6c-1.050 0-1.85 0.85-1.85 1.85v1.6c0 0.3 0.050 0.55 0.2 0.8h-0.85c-0.8 0-1.5 0.35-2 1-0.5-0.6-1.2-1-2-1h-0.85c0.1-0.25 0.2-0.5 0.2-0.8v-1.6c0-1.050-0.85-1.85-1.85-1.85h-1.6c-1.050 0-1.85 0.85-1.85 1.85v1.6c0 0.3 0.050 0.55 0.2 0.8h-1.85v-0.15c0-1.4-1.15-2.55-2.55-2.55h-0.15v-2.4c0-0.45 0.35-0.8 0.8-0.8h2.4v-1.050h-2.4c-1.050 0-1.85 0.85-1.85 1.85v12.55c0 0.3 0.25 0.55 0.55 0.55h2.65c0.3 0 0.55-0.25 0.55-0.55v-1.050h16v-1.050h-16v-1.050h19.2v1.050h-2.15v1.050h2.15v1.050c0 0.3 0.25 0.55 0.55 0.55h2.65c0.3 0 0.55-0.25 0.55-0.55v-12.5c-0.050-1.050-0.85-1.9-1.9-1.9zM17.050 23.2v-1.6c0-0.45 0.35-0.8 0.8-0.8h1.6c0.45 0 0.8 0.35 0.8 0.8v1.6c0 0.45-0.35 0.8-0.8 0.8h-1.6c-0.45 0-0.8-0.35-0.8-0.8zM6.4 23.2v-1.6c0-0.45 0.35-0.8 0.8-0.8h1.6c0.45 0 0.8 0.35 0.8 0.8v1.6c0 0.45-0.35 0.8-0.8 0.8h-1.6c-0.45 0-0.8-0.35-0.8-0.8zM2.65 30.95h-1.6v-8.55h0.15c0.8 0 1.45 0.65 1.45 1.45v7.1zM3.75 25.050h7.6c0.8 0 1.45 0.65 1.45 1.45v0.65h-9.050v-2.1zM13.85 27.2v-0.65c0-0.8 0.65-1.45 1.45-1.45h7.6v2.15h-9.050v-0.050zM25.6 30.95h-1.6v-7.1c0-0.8 0.65-1.45 1.45-1.45h0.15v8.55z"></path><path fill="#000" d="M0.3 13.2l1.1 0.6 0.6 1.1c0.1 0.15 0.25 0.3 0.45 0.3s0.35-0.1 0.45-0.3l0.6-1.1 1.1-0.6c0.15-0.1 0.3-0.25 0.3-0.45s-0.1-0.35-0.3-0.45l-1.1-0.6-0.6-1.1c-0.1-0.15-0.25-0.3-0.45-0.3s-0.35 0.1-0.45 0.3l-0.6 1.1-1.1 0.6c-0.2 0.050-0.3 0.25-0.3 0.4 0 0.2 0.1 0.4 0.3 0.5zM2.050 12.5c0.1-0.050 0.15-0.1 0.2-0.2l0.2-0.4 0.2 0.4c0.050 0.1 0.1 0.15 0.2 0.2l0.4 0.2-0.4 0.2c-0.1 0.050-0.15 0.1-0.2 0.2l-0.2 0.4-0.2-0.4c-0.050-0.1-0.1-0.15-0.2-0.2l-0.4-0.2 0.4-0.2z"></path><path fill="#000" d="M6.050 5.6l1.1 0.6 0.6 1.1c0.1 0.15 0.25 0.3 0.45 0.3s0.35-0.1 0.45-0.3l0.6-1.1 1.1-0.6c0.15-0.1 0.3-0.25 0.3-0.45s-0.1-0.35-0.3-0.45l-1.1-0.6-0.6-1.1c-0.1-0.15-0.25-0.3-0.45-0.3s-0.35 0.1-0.45 0.3l-0.6 1.1-1.1 0.6c-0.15 0.1-0.3 0.25-0.3 0.45 0 0.15 0.1 0.35 0.3 0.45zM7.8 4.9c0.1-0.050 0.15-0.1 0.2-0.2l0.2-0.4 0.2 0.4c0.050 0.1 0.1 0.15 0.2 0.2l0.4 0.2-0.4 0.2c-0.1 0.050-0.15 0.1-0.2 0.2l-0.2 0.4-0.2-0.35c-0.050-0.1-0.1-0.15-0.2-0.2l-0.4-0.2 0.4-0.25z"></path><path fill="#000" d="M32 4.25v-3.7c0-0.3-0.25-0.55-0.55-0.55h-19.2c-0.3 0-0.55 0.25-0.55 0.55v15.45h1.050v-1.050h18.15v2.15h-3.2v1.050h3.2v4.25h-3.2v1.050h3.2v7.45h-3.2v1.1h3.75c0.3 0 0.55-0.25 0.55-0.55v-26.1h-1.050v2.15h-5.35v-6.45h5.35v3.2h1.050zM24.55 7.45h-5.35v-6.4h5.35v6.4zM12.8 1.050h5.35v6.4h-5.35v-6.4zM12.8 8.55h11.75v5.35h-11.75v-5.35zM30.95 13.85h-2.15v-5.3h2.15v5.3zM27.75 8.55v5.35h-2.15v-5.35h2.15z"></path><path fill="#000" d="M14.9 10.15h-1.050v2.15h1.050v-2.15z"></path><path fill="#000" d="M17.050 3.75h-1.050v1.050h1.050v-1.050z"></path><path fill="#000" d="M21.3 3.75h-1.050v1.050h1.050v-1.050z"></path><path fill="#000" d="M29.35 5.35h-2.15v1.050h2.15v-1.050z"></path><path fill="#000" d="M28.8 26.15h-1.050v2.15h1.050v-2.15z"></path></svg>