<svg xmlns="http://www.w3.org/2000/svg" viewBox="0 0 36.78 33.03"><defs><style>.cls-1,.cls-2{fill:none;stroke-miterlimit:10;stroke-width:1.03px;}.cls-1{stroke:#231f20;}.cls-2{stroke:#c44c27;}</style></defs><title>Groundworks</title><g id="Layer_2" data-name="Layer 2"><g id="Layer_1-2" data-name="Layer 1"><rect class="cls-1" x="4.5" y="21.23" width="19.83" height="3.83"/><polygon class="cls-1" points="14.31 21.22 1.83 21.22 1.83 13.26 14.31 13.26 14.31 15.46 14.31 21.22"/><path class="cls-1" d="M14.24,8V21.15H26V17.29a2.08,2.08,0,0,0-.31-1.1L20.42,8.05Z"/><polyline class="cls-1" points="21.38 10.04 17.54 10.04 17.54 17.31 26.04 17.31"/><line class="cls-1" x1="15.55" y1="7.78" x2="18.5" y2="3.04"/><line class="cls-1" x1="18.43" y1="7.98" x2="20.69" y2="4.28"/><line class="cls-1" x1="33.11" y1="0.57" x2="33.83" y2="0.57"/><path class="cls-1" d="M32.39,3.93H20.18A1.69,1.69,0,0,1,18.5,2.25h0A1.69,1.69,0,0,1,20.18.57H33.11"/><path class="cls-1" d="M32.51,14.49a1.66,1.66,0,0,1-.09-.53V2.19A1.68,1.68,0,0,1,34.09.51h.07a1.68,1.68,0,0,1,1.67,1.67V14a1.66,1.66,0,0,1-.06.45"/><path class="cls-1" d="M36.26,14.64a3.17,3.17,0,1,1-6.31,0Z"/><circle class="cls-2" cx="14.62" cy="29.01" r="1.41"/><circle class="cls-2" cx="18.39" cy="29.04" r="1.41"/><circle class="cls-2" cx="21.96" cy="29.08" r="1.41"/><circle class="cls-2" cx="7.38" cy="29.01" r="1.41"/><circle class="cls-2" cx="11.16" cy="29.04" r="1.41"/><rect class="cls-2" x="0.51" y="25.04" width="27.71" height="7.48" rx="3.74" ry="3.74"/></g></g></svg>