<svg xmlns="http://www.w3.org/2000/svg" width="64" height="46" viewBox="0 0 64 46" fill="none"><path d="M20.6 16C15.6 16 11.5 20.1 11.5 25.1C11.5 30.1 15.6 34.2 20.6 34.2C25.6 34.2 29.7 30.1 29.7 25.1C29.7 20.1 25.6 16 20.6 16ZM20.6 32C16.8 32 13.7 28.9 13.7 25.1C13.7 21.3 16.8 18.2 20.6 18.2C24.4 18.2 27.5 21.3 27.5 25.1C27.4 28.9 24.4 32 20.6 32Z" fill="#C54A15"></path><path d="M40.3 21L35.8 19.9C35.6 19.3 35.3 18.7 35 18.1L37.4 14.1C37.7 13.7 37.6 13.1 37.2 12.7L33 8.5C32.6 8.1 32.1 8.1 31.6 8.3L27.6 10.7C27 10.4 26.4 10.1 25.7 9.9L24.6 5.4C24.5 4.9 24 4.5 23.5 4.5H17.5C17 4.5 16.5 4.9 16.4 5.4L15.3 9.9C14.7 10.1 14 10.4 13.5 10.7L9.5 8.3C9.1 8 8.5 8.1 8.1 8.5L3.9 12.7C3.5 13.1 3.5 13.6 3.7 14.1L6.1 18.1C5.8 18.7 5.5 19.3 5.3 20L0.9 21C0.4 21.2 0 21.6 0 22.2V28.2C0 28.7 0.4 29.2 0.9 29.3L5.4 30.4C5.6 31 5.9 31.7 6.2 32.3L3.8 36.3C3.5 36.8 3.6 37.3 4 37.7L8.2 41.9C8.6 42.3 9.1 42.3 9.6 42.1L13.6 39.7C14.2 40 14.8 40.3 15.4 40.5L16.5 45C16.6 45.5 17.1 45.9 17.6 45.9H23.6C24.1 45.9 24.6 45.5 24.7 45L25.8 40.5C26.4 40.3 27.1 40 27.7 39.7L31.7 42.1C32.1 42.4 32.7 42.3 33.1 41.9L37.3 37.7C37.7 37.3 37.7 36.8 37.5 36.3L35.1 32.3C35.4 31.7 35.7 31.1 35.9 30.4L40.4 29.3C40.9 29.2 41.3 28.7 41.3 28.2V22.2C41.1 21.6 40.8 21.2 40.3 21ZM38.9 27.2L34.7 28.3C34.3 28.4 34 28.7 33.9 29.1C33.6 30 33.3 30.8 32.8 31.7C32.6 32.1 32.6 32.5 32.8 32.8L35.1 36.6L32.1 39.6L28.3 37.4C28 37.2 27.5 37.2 27.2 37.4C26.3 37.9 25.2 38.3 24.6 38.5C24.2 38.6 23.9 38.9 23.8 39.3L22.8 43.5H18.6L17.6 39.3C17.5 38.9 17.2 38.5 16.7 38.4C15.8 38.1 15 37.8 14.2 37.4C13.8 37.2 13.4 37.2 13.1 37.4L9.3 39.7L6.3 36.7L8.5 32.9C8.7 32.6 8.7 32.1 8.5 31.8C8 30.9 7.7 30.1 7.4 29.2C7.3 28.8 7 28.5 6.6 28.4L2.4 27.3V23L6.5 22C6.9 21.9 7.2 21.6 7.3 21.2C7.6 20.3 7.9 19.5 8.4 18.6C8.6 18.2 8.6 17.8 8.4 17.5L6.2 13.7L9.2 10.7L13 13C13.3 13.2 13.8 13.2 14.1 13C14.9 12.6 15.7 12.2 16.6 11.9C17 11.8 17.4 11.5 17.5 11.1L18.6 6.9H22.8L23.8 11.1C23.9 11.5 24.2 11.8 24.7 11.9C25.6 12.2 26.4 12.5 27.3 13C27.7 13.2 28.1 13.2 28.4 13L32.1 10.7L35.1 13.7L32.8 17.5C32.6 17.8 32.6 18.3 32.8 18.6C33.2 19.4 33.6 20.2 33.8 21.1C33.9 21.5 34.2 21.9 34.6 22L38.8 23.1V27.2H38.9Z" fill="#C54A15"></path><path d="M47.9995 22.9C51.7995 22.9 54.8995 19.8 54.8995 16C54.8995 12.2 51.7995 9.1 47.9995 9.1C44.1995 9.1 41.0995 12.2 41.0995 16C41.0995 19.8 44.1995 22.9 47.9995 22.9ZM47.9995 11.4C50.4995 11.4 52.5995 13.5 52.5995 16C52.5995 18.5 50.4995 20.6 47.9995 20.6C45.4995 20.6 43.3995 18.5 43.3995 16C43.3995 13.5 45.4995 11.4 47.9995 11.4Z" fill="black"></path><path d="M63.0995 12.6L59.6995 11.8C59.5995 11.4 59.3995 11 59.1995 10.6L60.9995 7.7C61.2995 7.2 61.1995 6.7 60.7995 6.3L57.4995 3.1C57.0995 2.7 56.5995 2.7 56.0995 2.9L53.0995 4.7C52.6995 4.5 52.2995 4.3 51.8995 4.2L51.0995 0.9C51.0995 0.4 50.5995 0 50.0995 0H45.4995C44.9995 0 44.4995 0.4 44.3995 0.9L43.5995 4.2C43.1995 4.3 42.7995 4.5 42.3995 4.7L39.3995 2.9C38.9995 2.6 38.3995 2.7 37.9995 3.1L34.6995 6.3C34.2995 6.7 34.2995 7.3 34.4995 7.7L35.9995 10.1C36.7995 11.4 38.6995 10.2 37.9995 8.9L36.9995 7.2L38.9995 5.2L41.7995 6.8C42.0995 7 42.5995 7 42.8995 6.8C43.4995 6.5 44.0995 6.2 44.7995 6C45.1995 5.9 45.5995 5.6 45.6995 5.2L46.4995 2.2H49.3995L50.1995 5.2C50.2995 5.6 50.5995 5.9 50.9995 6C51.5995 6.2 52.2995 6.5 52.8995 6.8C53.2995 7 53.6995 7 53.9995 6.8L56.7995 5.2L58.7995 7.2L56.9995 10C56.7995 10.4 56.7995 10.8 56.9995 11.1C57.2995 11.7 57.5995 12.3 57.7995 13C57.8995 13.5 58.1995 13.8 58.5995 13.9L61.6995 14.7V17.5L58.5995 18.3C58.1995 18.4 57.8995 18.7 57.7995 19.1C57.5995 19.7 57.2995 20.4 56.9995 21C56.7995 21.4 56.7995 21.8 56.9995 22.2L58.5995 24.9L56.5995 26.9L53.7995 25.3C53.4995 25.1 52.9995 25.1 52.6995 25.3C52.0995 25.6 51.4995 25.9 50.7995 26.1C50.2995 26.2 49.9995 26.5 49.8995 26.9L49.0995 29.9H46.1995L45.3995 26.9C45.2995 26.5 44.9995 26.2 44.5995 26.1C44.2995 26 43.8995 25.9 43.5995 25.8C42.1995 25.2 41.2995 27.3 42.6995 27.9C42.8995 28 43.0995 28.1 43.2995 28.1L44.0995 31.4C44.1995 31.9 44.6995 32.3 45.1995 32.3H49.7995C50.2995 32.3 50.7995 31.9 50.8995 31.4L51.6995 28.1C52.0995 28 52.4995 27.8 52.8995 27.6L55.8995 29.4C56.2995 29.7 56.8995 29.6 57.2995 29.2L60.5995 26C60.9995 25.6 60.9995 25 60.7995 24.6L58.9995 21.7C59.1995 21.3 59.3995 20.9 59.4995 20.5L62.7995 19.7C63.2995 19.6 63.6995 19.1 63.6995 18.6V14C63.9995 13.2 63.5995 12.7 63.0995 12.6Z" fill="black"></path></svg>