<svg xmlns="http://www.w3.org/2000/svg" viewBox="0 0 39.75 32.51"><defs><style>.cls-1{fill:#231f20;}.cls-2,.cls-3,.cls-4{fill:none;stroke-miterlimit:10;stroke-width:1.03px;}.cls-2,.cls-3{stroke:#231f20;}.cls-3{stroke-linecap:round;}.cls-4{stroke:#c44c27;}</style></defs><title>Kitchens</title><g id="Layer_2" data-name="Layer 2"><g id="Layer_1-2" data-name="Layer 1"><path class="cls-1" d="M38.73,1.54V31.47H25.82V1.54H38.73m1-1h-15v32h15V.51Z"/><path class="cls-1" d="M24.74,20.74V31.49H1V20.74H24.74m1-1H0v12.8H25.77V19.71Z"/><line class="cls-2" x1="25.45" y1="10.24" x2="39.27" y2="10.24"/><line class="cls-2" x1="13.31" y1="20.02" x2="13.31" y2="31.81"/><path class="cls-1" d="M9.86,24.65v3.47H4.18V24.65H9.86m1-1H3.15v5.52h7.74V23.62Z"/><path class="cls-1" d="M3.16,21.66a.43.43,0,1,0,.42.43.42.42,0,0,0-.42-.43Z"/><path class="cls-1" d="M10.91,21.6a.43.43,0,1,0,.42.43.42.42,0,0,0-.42-.43Z"/><path class="cls-1" d="M5.86,21.6a.43.43,0,1,0,.42.43.42.42,0,0,0-.42-.43Z"/><path class="cls-1" d="M8.74,21.54a.43.43,0,1,0,.42.43.42.42,0,0,0-.42-.43Z"/><line class="cls-2" x1="13.31" y1="25.49" x2="25.15" y2="25.49"/><line class="cls-3" x1="19.2" y1="25.98" x2="19.2" y2="32"/><line class="cls-3" x1="17.52" y1="22.64" x2="21.66" y2="22.64"/><line class="cls-3" x1="17.04" y1="27.68" x2="17.04" y2="29.75"/><line class="cls-3" x1="21.66" y1="27.68" x2="21.66" y2="29.75"/><line class="cls-3" x1="27.67" y1="4.53" x2="27.67" y2="7.87"/><line class="cls-3" x1="27.79" y1="12.67" x2="27.79" y2="16.01"/><line class="cls-3" x1="19.68" y1="20.2" x2="19.68" y2="15.46"/><path class="cls-3" d="M17,15.56a1.35,1.35,0,1,1,2.7,0"/><polygon class="cls-4" points="6.04 0.51 12.53 0.51 12.53 7.63 14.99 12.3 3.64 12.37 5.98 7.75 6.04 0.51"/></g></g></svg>