<svg xmlns="http://www.w3.org/2000/svg" width="64" height="66" viewBox="0 0 64 66" fill="none"><path d="M11.7996 47.0002C11.0996 47.0002 10.5996 47.6002 10.5996 48.2002V57.2002C10.5996 57.9002 11.1996 58.5002 11.7996 58.5002C12.3996 58.5002 13.0996 57.9002 13.0996 57.2002V48.2002C13.0996 47.6002 12.4996 47.0002 11.7996 47.0002Z" fill="black"></path><path d="M11.8 44.7001C12.1 44.7001 12.5 44.6001 12.7 44.3001C12.9 44.1001 13.1 43.7001 13.1 43.4001C13.1 43.1001 13 42.7001 12.7 42.5001C12.5 42.3001 12.1 42.1001 11.8 42.1001C11.5 42.1001 11.1 42.2001 10.9 42.5001C10.7 42.7001 10.5 43.1001 10.5 43.4001C10.5 43.7001 10.6 44.1001 10.9 44.3001C11.2 44.6001 11.5 44.7001 11.8 44.7001Z" fill="black"></path><path d="M7.39961 58.5001C8.09961 58.5001 8.69961 57.9001 8.69961 57.2001V43.1001C8.69961 42.4001 8.09961 41.9001 7.39961 41.9001C6.69961 41.9001 6.09961 42.5001 6.09961 43.1001V57.2001C6.09961 58.0001 6.69961 58.5001 7.39961 58.5001Z" fill="black"></path><path d="M18 37.0002H13.4V12.6002L15.1 10.8002C15.4 10.5002 15.5 10.1002 15.4 9.70024L13.6 2.00024C13.5 1.40024 13 1.00024 12.4 1.00024H6.8C6.2 1.00024 5.7 1.40024 5.6 2.00024L3.8 9.60024C3.7 10.0002 3.8 10.5002 4.1 10.8002L5.8 12.6002V37.0002H1.3C0.6 37.0002 0 37.6002 0 38.3002C0 39.0002 0.6 39.6002 1.3 39.6002H1.6V57.0002C1.6 61.4002 5.2 65.0002 9.6 65.0002C14 65.0002 17.6 61.4002 17.6 57.0002V39.5002H18C18.7 39.5002 19.3 38.9002 19.3 38.3002C19.2 37.6002 18.6 37.0002 18 37.0002ZM7.8 3.50024H11.4L12.8 9.50024L11.2 11.2002C10.9 11.5002 10.8 11.8002 10.9 12.2002V37.0002H8.4V12.2002C8.4 11.8002 8.3 11.5002 8.1 11.2002L6.4 9.50024L7.8 3.50024ZM15.1 57.0002C15.1 60.0002 12.6 62.5002 9.6 62.5002C6.6 62.5002 4.1 60.0002 4.1 57.0002V39.5002H15.2V57.0002H15.1Z" fill="black"></path><path d="M35.1998 30.1002C34.9998 30.3002 34.7998 30.7002 34.7998 31.0002C34.7998 31.3002 34.8998 31.7002 35.1998 31.9002C35.3998 32.1002 35.7998 32.3002 36.0998 32.3002C36.3998 32.3002 36.7998 32.2002 36.9998 31.9002C37.1998 31.7002 37.3998 31.3002 37.3998 31.0002C37.3998 30.7002 37.2998 30.3002 36.9998 30.1002C36.7998 29.9002 36.3998 29.7002 36.0998 29.7002C35.7998 29.7002 35.4998 29.8002 35.1998 30.1002Z" fill="black"></path><path d="M37.3996 47.2002V36.0002C37.3996 35.3002 36.7996 34.7002 36.0996 34.7002C35.3996 34.7002 34.8996 35.3002 34.8996 36.0002V48.0002C34.8996 48.5002 35.1996 48.9002 35.5996 49.1002C37.8996 50.3002 39.2996 52.6002 39.3996 55.2002C39.4996 58.0002 38.0996 60.5002 35.7996 61.9002V57.4002C35.7996 55.3002 34.0996 53.7002 32.0996 53.7002C30.0996 53.7002 28.3996 55.4002 28.3996 57.4002V61.9002C26.1996 60.6002 24.7996 58.2002 24.7996 55.6002C24.7996 52.9002 26.2996 50.5002 28.5996 49.2002C28.9996 49.0002 29.1996 48.6002 29.1996 48.1002V18.1002C29.1996 17.6002 28.8996 17.2002 28.4996 17.0002C26.1996 15.8002 24.7996 13.5002 24.6996 10.9002C24.5996 8.10017 25.9996 5.60017 28.2996 4.20017V8.70017C28.2996 10.8002 29.9996 12.4002 31.9996 12.4002C34.0996 12.4002 35.6996 10.7002 35.6996 8.70017V4.20017C37.8996 5.50017 39.2996 7.90017 39.2996 10.5002C39.2996 13.2002 37.7996 15.6002 35.4996 16.9002C35.0996 17.1002 34.8996 17.5002 34.8996 18.0002V25.7002C34.8996 26.4002 35.4996 27.0002 36.0996 27.0002C36.7996 27.0002 37.3996 26.4002 37.3996 25.7002V18.7002C40.1996 16.9002 41.8996 13.8002 41.8996 10.4002C41.8996 8.20017 41.1996 6.20017 39.8996 4.50017C38.5996 2.80017 36.8996 1.60017 34.8996 1.00017C34.4996 0.900168 34.0996 1.00017 33.7996 1.20017C33.4996 1.40017 33.2996 1.80017 33.2996 2.20017V8.60017C33.1996 9.40017 32.6996 10.0002 31.9996 10.0002C31.2996 10.0002 30.6996 9.40017 30.6996 8.70017V2.30017C30.6996 1.90017 30.4996 1.50017 30.1996 1.30017C29.8996 1.10017 29.4996 1.00017 29.0996 1.10017C24.7996 2.40017 21.8996 6.50017 22.0996 11.0002C22.2996 14.2002 23.8996 17.1002 26.5996 18.8002V47.2002C23.7996 49.0002 22.0996 52.1002 22.0996 55.5002C22.0996 57.7002 22.7996 59.7002 24.0996 61.4002C25.3996 63.1002 27.0996 64.3002 29.0996 64.9002C29.1996 64.9002 29.2996 65.0002 29.4996 65.0002C29.7996 65.0002 29.9996 64.9002 30.1996 64.8002C30.4996 64.6002 30.6996 64.2002 30.6996 63.8002V57.4002C30.6996 56.7002 31.2996 56.1002 31.9996 56.1002C32.6996 56.1002 33.1996 56.7002 33.1996 57.4002V63.8002C33.1996 64.2002 33.3996 64.6002 33.6996 64.8002C33.9996 65.0002 34.3996 65.1002 34.7996 65.0002C39.0996 63.7002 41.9996 59.6002 41.7996 55.1002C41.6996 51.8002 39.9996 49.0002 37.3996 47.2002Z" fill="black"></path><path d="M63.4 12.2002L55.9 7.90024C55.5 7.70024 55 7.70024 54.6 7.90024L47.1 12.2002C46.7 12.4002 46.5 12.8002 46.5 13.3002V22.0002C46.5 22.4002 46.7 22.9002 47.1 23.1002L54.6 27.4002C54.8 27.5002 55 27.6002 55.2 27.6002C55.4 27.6002 55.6 27.5002 55.8 27.4002L63.3 23.1002C63.7 22.9002 63.9 22.5002 63.9 22.0002V13.3002C64 12.9002 63.8 12.5002 63.4 12.2002ZM61.5 21.3002L55.3 24.9002L49 21.3002V14.1002L55.2 10.5002L61.4 14.1002V21.3002H61.5Z" fill="#C54A15"></path><path d="M51.2002 17.7002C51.2002 19.9002 53.0002 21.7002 55.2002 21.7002C57.4002 21.7002 59.2002 19.9002 59.2002 17.7002C59.2002 15.5002 57.4002 13.7002 55.2002 13.7002C53.0002 13.7002 51.2002 15.5002 51.2002 17.7002ZM56.7002 17.7002C56.7002 18.5002 56.0002 19.2002 55.2002 19.2002C54.4002 19.2002 53.7002 18.5002 53.7002 17.7002C53.7002 16.9002 54.4002 16.2002 55.2002 16.2002C56.0002 16.2002 56.7002 16.8002 56.7002 17.7002Z" fill="#C54A15"></path><path d="M62.7 31.7002H47.7C47 31.7002 46.5 32.3002 46.5 32.9002V40.1002C46.5 40.8002 47.1 41.4002 47.7 41.4002H50V47.8002V55.3002C50 56.9002 51.3 58.2002 52.9 58.2002H57.6C59.2 58.2002 60.5 56.9002 60.5 55.3002V41.5002H62.7C63.4 41.5002 64 40.9002 64 40.2002V33.0002C64 32.3002 63.4 31.7002 62.7 31.7002ZM58 55.4002C58 55.6002 57.8 55.8002 57.6 55.8002H52.9L58 50.7002V55.4002ZM58 47.1002L52.5 52.6002V48.4002L58 42.9002V47.1002ZM52.5 44.9002V41.5002H55.9L52.5 44.9002ZM61.5 39.0002H49V34.3002H61.5V39.0002Z" fill="#C54A15"></path></svg>