<svg xmlns="http://www.w3.org/2000/svg" width="32" height="32" viewBox="0 0 32 32"><title>painting</title><path fill="#000" d="M15.85 29.85c0.9 0 1.6-0.75 1.6-1.6s-0.75-1.6-1.6-1.6c-0.85 0-1.6 0.7-1.6 1.55s0.7 1.65 1.6 1.65zM15.85 27.7c0.3 0 0.55 0.25 0.55 0.55s-0.25 0.55-0.55 0.55c-0.3 0-0.55-0.25-0.55-0.55 0.050-0.3 0.25-0.55 0.55-0.55z"></path><path fill="#000" d="M25.25 5.55v10.25h-18.75v-4.5h-1.1v7.75c0 2.1 1.75 3.85 3.85 3.85h2.75v5.25c0 2.1 1.75 3.85 3.85 3.85s3.85-1.75 3.85-3.85v-5.25h2.75c2.1 0 3.85-1.75 3.85-3.85v-13.5h-1.050zM25.25 19.050c0 1.55-1.25 2.75-2.75 2.75h-3.85v6.35c0 1.55-1.25 2.75-2.75 2.75s-2.75-1.25-2.75-2.75v-6.35h-3.9c-1.55 0-2.75-1.25-2.75-2.75v-2.15h18.75v2.15z"></path><path fill="#c54a15" d="M25.8 0h-19.85c-1.2 0-2.2 1-2.2 2.2v6.050c0 1.2 1 2.2 2.2 2.2s2.2-1 2.2-2.2v-1.25c0-0.4 0.3-0.7 0.7-0.7s0.7 0.3 0.7 0.7v5.85c0 1.45 1.15 2.6 2.6 2.6s2.6-1.15 2.6-2.6v-5.85c0-0.4 0.3-0.7 0.7-0.7s0.7 0.3 0.7 0.7v0.15c0 1.9 1.55 3.45 3.45 3.45s3.45-1.55 3.45-3.45c0-1.55 1.25-2.75 2.75-2.75 1.2 0 2.2-1 2.2-2.2s-1-2.2-2.2-2.2zM25.8 3.3c-2.1 0-3.85 1.75-3.85 3.85 0 1.3-1.050 2.35-2.35 2.35s-2.35-1.050-2.35-2.35v-0.15c0-1-0.8-1.8-1.8-1.8s-1.8 0.8-1.8 1.8v5.85c0 0.85-0.7 1.55-1.55 1.55s-1.55-0.7-1.55-1.55v-5.85c0-1-0.8-1.8-1.8-1.8s-1.7 0.8-1.7 1.8v1.25c0 0.6-0.5 1.1-1.1 1.1s-1.1-0.5-1.1-1.1v-6.050c0-0.6 0.5-1.1 1.1-1.1h19.85c0.6 0 1.1 0.5 1.1 1.1s-0.5 1.1-1.1 1.1z"></path></svg>