<svg xmlns="http://www.w3.org/2000/svg" width="32" height="32" viewBox="0 0 32 32"><title>plumbing</title><path fill="#000" d="M30.95 2h-0.45v-1.5c0-0.25-0.2-0.5-0.5-0.5h-3.85c-0.25 0-0.5 0.2-0.5 0.5v1.5h-0.55c-0.25 0-0.5 0.2-0.5 0.5v1.6c0 0.25 0.2 0.5 0.5 0.5h0.55v1.5c0 0.25 0.2 0.5 0.5 0.5 0.25 0 0.5-0.2 0.5-0.5v-1.5h2.85v7.2c0 3-2.45 5.45-5.45 5.45h-3.75v-3h3.9c1.35 0 2.5-1.1 2.5-2.5v-3.050c0-0.25-0.2-0.5-0.5-0.5-0.25 0-0.5 0.2-0.5 0.5v3.050c0 0.8-0.65 1.5-1.5 1.5h-3.9v-0.7c0-0.25-0.2-0.5-0.5-0.5h-1.55c-0.25 0-0.5 0.2-0.5 0.5v0.7h-1.15v-3.5h0.55c0.2 0.75 0.9 1.35 1.75 1.35 1 0 1.8-0.8 1.8-1.8s-0.8-1.8-1.8-1.8c-0.85 0-1.55 0.55-1.75 1.35h-2.050c-0.2-0.75-0.9-1.35-1.75-1.35-1 0-1.8 0.8-1.8 1.8s0.8 1.8 1.8 1.8c0.85 0 1.55-0.55 1.75-1.35h0.55v3.5h-1.15v-0.7c0-0.25-0.2-0.5-0.5-0.5h-1.6c-0.25 0-0.5 0.2-0.5 0.5v0.7h-4.15c-3.55 0-6.45 2.9-6.45 6.45v2.25c0 0.25 0.2 0.5 0.5 0.5s0.5-0.2 0.5-0.5v-2.25c0-3 2.45-5.45 5.45-5.45h4.15v3h-4.25c-1.35 0-2.5 1.1-2.5 2.5v7.6h-2.85v-2.7c0-0.25-0.2-0.5-0.5-0.5s-0.5 0.2-0.5 0.5v2.7h-0.55c-0.25 0-0.5 0.2-0.5 0.5v1.6c0 0.25 0.2 0.5 0.5 0.5h0.55v1.5c0 0.25 0.2 0.5 0.5 0.5h3.85c0.25 0 0.5-0.2 0.5-0.5v-1.5h0.45c0.25 0 0.5-0.2 0.5-0.5v-1.6c0-0.25-0.2-0.5-0.5-0.5h-0.45v-7.65c0-0.8 0.65-1.5 1.5-1.5h4.25v0.7c0 0.25 0.2 0.5 0.5 0.5h1.6c0.25 0 0.5-0.2 0.5-0.5v-0.7h3.25v0.7c0 0.25 0.2 0.5 0.5 0.5h1.6c0.25 0 0.5-0.2 0.5-0.5v-0.7h3.75c3.55 0 6.45-2.9 6.45-6.45v-7.2h0.45c0.25 0 0.5-0.2 0.5-0.5v-1.55c-0.050-0.3-0.25-0.5-0.55-0.5zM18.9 8.4c0.45 0 0.85 0.35 0.85 0.85s-0.35 0.85-0.85 0.85c-0.45 0-0.85-0.35-0.85-0.85s0.4-0.85 0.85-0.85zM13.35 10.050c-0.45 0-0.85-0.35-0.85-0.85s0.35-0.85 0.85-0.85c0.45 0 0.85 0.35 0.85 0.85s-0.4 0.85-0.85 0.85zM5.15 30.85h-2.85v-1h2.85v1zM6.1 28.9h-4.85v-0.6h4.85v0.6zM13.5 18.4h-0.6v-5.35h0.6v5.35zM17.75 17.25h-3.25v-3h3.25v3zM19.35 18.4h-0.6v-5.35h0.6v5.35zM26.7 1h2.85v1h-2.85v-1zM30.45 3.6h-4.85v-0.6h4.85v0.6z"></path><path fill="#c54a15" d="M18.7 23.3c-0.15-0.25-0.45-0.3-0.7-0.2-0.25 0.15-0.3 0.45-0.2 0.7 1.4 2.4 1.6 3.45 1.6 3.85 0 1.85-1.5 3.35-3.35 3.35s-3.3-1.5-3.3-3.35c0-1.45 2.15-4.8 3.35-6.55 0.2 0.25 0.4 0.6 0.65 0.95 0.15 0.25 0.45 0.3 0.7 0.15s0.3-0.45 0.15-0.7c-0.6-0.9-1.050-1.55-1.050-1.55-0.2-0.25-0.6-0.25-0.8 0-0.4 0.55-3.95 5.5-3.95 7.7 0 2.4 1.95 4.35 4.35 4.35s4.35-1.95 4.35-4.35c-0.050-0.9-0.6-2.35-1.8-4.35z"></path><path fill="#c54a15" d="M16.1 29.4c-0.25 0-0.5 0.2-0.5 0.5s0.2 0.5 0.5 0.5c1.5 0 2.75-1.25 2.75-2.75 0-0.2-0.1-1.15-1.55-3.55-0.15-0.25-0.45-0.3-0.7-0.2-0.25 0.15-0.3 0.45-0.2 0.7 1.35 2.3 1.4 3.050 1.4 3.050 0.050 1-0.7 1.75-1.7 1.75z"></path></svg>