<svg xmlns="http://www.w3.org/2000/svg" width="32" height="32" viewBox="0 0 32 32"><title>remodeling</title><path fill="#000" d="M23.7 17.4l-0.75 0.7 7.25 7.25-4.85 4.85-1.55-1.5 1.9-1.9-0.7-0.7-1.9 1.9-1.55-1.55 3-3-0.7-0.7-3 3-1.55-1.55 1.9-1.9-0.7-0.7-1.9 1.9-0.5-0.55-0.7 0.75 7.95 7.95 6.3-6.3-7.95-7.95z"></path><path fill="#000" d="M0 6.3l8.4 8.4 0.75-0.7-1-1 3-3-0.7-0.7-3.050 3-1.5-1.5 1.85-1.9-0.7-0.7-1.85 1.85-1.55-1.5 3-3-0.7-0.7-3 3-1.55-1.55 4.9-4.9 7.7 7.75 0.7-0.75-8.4-8.4-6.3 6.3z"></path><path fill="#c54a15" d="M25.15 0.1l-23.7 23.7-1.35 8.2 8.2-1.35 23.7-23.7-6.85-6.85zM21.5 5.2l1.3 1.3-18.1 18.1-1.050-0.25-0.25-1.050 18.1-18.1zM23.5 7.2l1.3 1.3-18.1 18.15-1-0.25-0.25-1.1 18.050-18.1zM1.3 30.8l0.4-2.55 2.1 2.1-2.5 0.45zM7.8 29.7l-2.8 0.5 0.050-0.050-3.050-3.050-0.050 0.050 0.45-2.8 0.2-0.2 0.25 1.050 1.65 0.4 0.4 1.65 1.65 0.4 0.4 1.65 1.050 0.2-0.2 0.2zM8.8 28.7l-1.050-0.25-0.3-1.15 18.050-18.050 1.35 1.35-18.050 18.1zM22.2 4.5l2.95-2.95 5.4 5.4-2.95 2.95-5.4-5.4z"></path></svg>