<svg xmlns="http://www.w3.org/2000/svg" width="42" height="65" viewBox="0 0 42 65" fill="none"><path d="M1.19961 63.2H18.4996C19.0996 63.2 19.6996 62.7 19.6996 62V1.2C19.6996 0.6 19.1996 0 18.4996 0H1.19961C0.599609 0 0.0996094 0.5 0.0996094 1.2V62C0.0996094 62.7 0.599609 63.2 1.19961 63.2ZM2.39961 2.3H17.3996V7.7H8.39961C7.79961 7.7 7.19961 8.2 7.19961 8.9C7.19961 9.5 7.69961 10.1 8.39961 10.1H17.2996V15.1H13.3996C12.7996 15.1 12.1996 15.6 12.1996 16.3C12.1996 16.9 12.6996 17.5 13.3996 17.5H17.2996V20.8H8.39961C7.79961 20.8 7.19961 21.3 7.19961 22C7.19961 22.6 7.69961 23.2 8.39961 23.2H17.2996V28.2H13.3996C12.7996 28.2 12.1996 28.7 12.1996 29.4C12.1996 30 12.6996 30.6 13.3996 30.6H17.2996V33.9H8.39961C7.79961 33.9 7.19961 34.4 7.19961 35.1C7.19961 35.7 7.69961 36.3 8.39961 36.3H17.2996V41.3H13.3996C12.7996 41.3 12.1996 41.8 12.1996 42.5C12.1996 43.1 12.6996 43.7 13.3996 43.7H17.2996V47H8.39961C7.79961 47 7.19961 47.5 7.19961 48.2C7.19961 48.8 7.69961 49.4 8.39961 49.4H17.2996V54.4H13.3996C12.7996 54.4 12.1996 54.9 12.1996 55.6C12.1996 56.2 12.6996 56.8 13.3996 56.8H17.2996V61.5H2.29961V2.3H2.39961Z" fill="#C54A15"></path><path d="M25.3998 46.5C25.3998 46.6 25.3998 46.7 25.4998 46.8L29.6998 56.6L32.5998 63.3C32.8998 63.9 33.4998 64.2 34.0998 63.9C34.3998 63.8 34.5998 63.6 34.6998 63.3L37.5998 56.6L41.7998 46.8C41.7998 46.7 41.8998 46.6 41.8998 46.5C41.8998 46.4 41.8998 46.4 41.8998 46.3V8.3C41.8998 3.7 38.1998 0 33.5998 0C28.9998 0 25.2998 3.7 25.2998 8.3V46.4C25.2998 46.4 25.2998 46.5 25.3998 46.5ZM33.5998 59.9L32.4998 57.3H34.6998L33.5998 59.9ZM35.7998 55H31.4998L28.2998 47.5H38.9998L35.7998 55ZM27.6998 45.2V11.4H39.5998V45.2H27.6998ZM33.5998 2.3C36.8998 2.3 39.4998 5 39.4998 8.2V9H27.6998V8.3C27.6998 5 30.2998 2.3 33.5998 2.3Z" fill="black"></path><path d="M30.6998 13.5C30.0998 13.5 29.4998 14 29.4998 14.7V29.2C29.4998 29.8 29.9998 30.4 30.6998 30.4C31.2998 30.4 31.8998 29.9 31.8998 29.2V14.6C31.8998 14 31.3998 13.5 30.6998 13.5Z" fill="black"></path><path d="M30.6998 32.8C30.0998 32.8 29.4998 33.3 29.4998 34V40C29.4998 40.6 29.9998 41.2 30.6998 41.2C31.2998 41.2 31.8998 40.7 31.8998 40V34C31.8998 33.3 31.3998 32.8 30.6998 32.8Z" fill="black"></path></svg>