<svg xmlns="http://www.w3.org/2000/svg" width="65" height="65" viewBox="0 0 65 65" fill="none"><path d="M32 14.8C41.5 14.8 49.2 22.5 49.2 32C49.2 41.5 41.5 49.2 32 49.2C30.3 49.2 28.6 48.9 27 48.4C25.4 47.9 24.7 50.3 26.3 50.8C28.1 51.4 30.1 51.7 32.1 51.7C43 51.7 51.8 42.9 51.8 32C51.8 21.1 43 12.3 32.1 12.3C21.2 12.3 12.3 21.1 12.3 32C12.3 33.9 12.6 35.8 13.1 37.6C13.6 39.2 15.9 38.5 15.5 36.9C15 35.3 14.8 33.7 14.8 32C14.8 22.5 22.5 14.8 32 14.8Z" fill="black"></path><path d="M63 27.1L57.1 25.9C56.5 23.3 55.4 20.8 54 18.5L57.3 13.5C57.6 13 57.6 12.4 57.1 11.9L52 6.8C51.6 6.4 50.9 6.3 50.4 6.6L45.4 9.9C43.1 8.5 40.6 7.5 38 6.8L36.9 1C36.8 0.4 36.3 0 35.7 0H28.3C27.7 0 27.2 0.4 27.1 1L25.9 6.9C23.3 7.5 20.8 8.6 18.5 10L13.5 6.7C13 6.3 12.4 6.3 12 6.8L6.8 12C6.4 12.4 6.3 13.1 6.6 13.6L9.9 18.6C8.5 20.9 7.5 23.4 6.8 26L1 27.1C0.4 27.2 0 27.7 0 28.3V35.7C0 36.3 0.4 36.8 1 36.9L6.9 38.1C7.2 39.5 7.7 40.9 8.3 42.3C8.9 43.8 11.2 42.8 10.6 41.3C10 39.9 9.5 38.3 9.2 36.8C9.1 36.3 8.7 35.9 8.2 35.8L2.5 34.7V29.3L8.2 28.2C8.7 28.1 9.1 27.7 9.2 27.2C9.8 24.3 10.9 21.6 12.5 19.2C12.8 18.8 12.8 18.2 12.5 17.8L9.2 13L13 9.2L17.8 12.4C18.2 12.7 18.8 12.7 19.2 12.4C21.7 10.8 24.4 9.7 27.2 9.1C27.7 9 28.1 8.6 28.2 8.1L29.3 2.4H34.7L35.8 8.1C35.9 8.6 36.3 9 36.8 9.1C39.7 9.7 42.4 10.8 44.8 12.4C45.2 12.7 45.8 12.7 46.2 12.4L51 9.2L54.8 13L51.6 17.8C51.3 18.2 51.3 18.7 51.6 19.2C53.2 21.6 54.3 24.4 54.9 27.2C55 27.7 55.4 28.1 55.9 28.2L61.6 29.3V34.7L55.9 35.8C55.4 35.9 55 36.3 54.9 36.8C54.3 39.7 53.2 42.4 51.6 44.8C51.3 45.2 51.3 45.8 51.6 46.2L54.8 51L51 54.8L46.2 51.6C45.8 51.3 45.3 51.3 44.8 51.6C42.3 53.2 39.6 54.3 36.8 54.9C36.3 55 35.9 55.4 35.8 55.9L34.7 61.6H29.3L28.2 55.9C28.1 55.4 27.7 55 27.2 54.9C25.7 54.6 24.2 54.1 22.7 53.5C21.2 52.9 20.2 55.1 21.7 55.8C23 56.4 24.4 56.8 25.9 57.2L27.1 63.1C27.2 63.7 27.7 64.1 28.3 64.1H35.7C36.3 64.1 36.8 63.7 36.9 63.1L38.1 57.2C40.7 56.6 43.2 55.5 45.5 54.1L50.5 57.4C51 57.7 51.6 57.7 52.1 57.2L57.3 52C57.7 51.6 57.8 50.9 57.5 50.4L54.2 45.4C55.6 43.1 56.6 40.6 57.3 38L63.2 36.8C63.8 36.7 64.2 36.2 64.2 35.6V28.2C64 27.7 63.6 27.2 63 27.1Z" fill="black"></path><path d="M38.9 41.4C39 41.3 39.2 41.3 39.3 41.2C45.8 35.3 44.2 27.4 44.1 27C43.9 26.1 42.7 25.7 42 26.4L35.9 32.5C35.2 32.4 34 32 33 31C32 30 31.6 28.7 31.5 28.1L37.6 22C38.3 21.3 37.9 20.1 37 19.9C36.7 19.8 28.7 18.3 22.8 24.7C22.7 24.8 22.6 24.9 22.6 25.1C22.5 25.3 21.1 29 22.3 33.5L1.7 54.1C0.6 55.2 0 56.7 0 58.2C0 61.4 2.6 64 5.8 64C7.4 64 8.8 63.4 9.9 62.3L30.6 41.6C35 42.9 38.7 41.4 38.9 41.4ZM29.3 39.4L8.1 60.6C7.5 61.2 6.6 61.6 5.8 61.6C4 61.6 2.5 60.1 2.5 58.3C2.5 57.4 2.9 56.6 3.5 55.9L24.7 34.7C25 34.4 25.1 33.9 25 33.4C23.8 30 24.7 27 24.9 26.2C28 22.9 31.6 22.2 34 22.1L29.4 26.7C29.1 27 29 27.3 29 27.7C29 27.8 29 30.6 31.2 32.8C33.4 35 36.2 35 36.3 35C36.6 35 36.9 34.9 37.2 34.6L41.8 30C41.7 32.4 41 36.1 37.7 39.2C36.9 39.5 33.9 40.3 30.5 39.1C30.1 38.9 29.6 39.1 29.3 39.4Z" fill="#C54A15"></path></svg>