<svg xmlns="http://www.w3.org/2000/svg" viewBox="0 0 40.15 33.23"><defs><style>.cls-1,.cls-2,.cls-3{fill:none;stroke-miterlimit:10;stroke-width:1.03px;}.cls-1,.cls-2{stroke:#231f20;}.cls-1{stroke-linecap:round;}.cls-3{stroke:#c44c27;}</style></defs><title>Steelwork</title><g id="Layer_2" data-name="Layer 2"><g id="Layer_1-2" data-name="Layer 1"><polyline class="cls-1" points="24.92 15.94 7.11 26.84 8.26 28.73 10.31 27.47 11.31 29.1 9.15 30.48 10.34 32.52 39.44 14.47 38.34 12.67 36.28 13.93 35.29 12.3 37.52 10.94 36.31 8.97 28.34 13.85"/><path class="cls-1" d="M25.3,16.88" transform="translate(-1.33 -0.36)"/><path class="cls-1" d="M30.7,13.58" transform="translate(-1.33 -0.36)"/><line class="cls-1" x1="37.51" y1="10.94" x2="9.93" y2="27.71"/><path class="cls-1" d="M19.63,0" transform="translate(-1.33 -0.36)"/><path class="cls-1" d="M14.15,9.23" transform="translate(-1.33 -0.36)"/><path class="cls-1" d="M10.5,2.24" transform="translate(-1.33 -0.36)"/><line class="cls-1" x1="13.43" y1="3.32" x2="19.71" y2="0.71"/><path class="cls-1" d="M15.06,4.18" transform="translate(-1.33 -0.36)"/><path class="cls-1" d="M10.88,6.36" transform="translate(-1.33 -0.36)"/><path class="cls-1" d="M10.88,6.36" transform="translate(-1.33 -0.36)"/><path class="cls-1" d="M0,11.89" transform="translate(-1.33 -0.36)"/><path class="cls-1" d="M21.28,1h0a1.56,1.56,0,0,1,2,.91l.57,1.51" transform="translate(-1.33 -0.36)"/><polygon class="cls-1" points="24.61 3.13 20.82 4.44 21.18 5.7 24.96 4.38 24.61 3.13"/><polygon class="cls-1" points="25.18 8.86 24.02 4.97 22.5 5.51 23.67 9.39 25.18 8.86"/><line class="cls-2" x1="24.56" y1="9.39" x2="25.61" y2="12.58"/><line class="cls-3" x1="32.09" y1="8.18" x2="28.98" y2="10.76"/><line class="cls-3" x1="28.8" y1="4.83" x2="27.77" y2="9.11"/><line class="cls-3" x1="23.56" y1="12.47" x2="20.31" y2="10.52"/><line class="cls-3" x1="22.73" y1="14.45" x2="17.31" y2="15.38"/><line class="cls-3" x1="14.06" y1="9.93" x2="15.23" y2="10.4"/><line class="cls-3" x1="13.69" y1="16.16" x2="12.65" y2="16.39"/><line class="cls-3" x1="27.42" y1="0.7" x2="27.48" y2="1.95"/><line class="cls-3" x1="32.65" y1="2.8" x2="32.11" y2="3.83"/><rect class="cls-1" x="6.2" y="-0.22" width="4.35" height="13.12" rx="1.25" ry="1.25" transform="translate(9.92 -4.13) rotate(68.73)"/><line class="cls-2" x1="8.12" y1="3.11" x2="9.7" y2="7.48"/><line class="cls-2" x1="5.65" y1="4.46" x2="7.13" y2="8.42"/></g></g></svg>